<svg width="128" height="183" viewBox="0 0 128 183" fill="none" xmlns="http://www.w3.org/2000/svg">
<path d="M0 183V149.201H17.0772C21.4714 149.201 24.767 150.006 26.964 151.615C29.1944 153.224 30.3096 155.349 30.3096 157.989C30.3096 159.759 29.8602 161.304 28.9614 162.624C28.0626 163.911 26.8309 164.909 25.2663 165.618C23.7017 166.326 21.9041 166.68 19.8735 166.68L20.8222 164.7C23.0193 164.7 24.9667 165.054 26.6644 165.762C28.3622 166.438 29.6771 167.452 30.6092 168.804C31.5746 170.156 32.0572 171.814 32.0572 173.778C32.0572 176.675 30.8755 178.944 28.512 180.586C26.1485 182.195 22.6698 183 18.0759 183H0ZM8.03928 177.109H17.4767C19.5739 177.109 21.1551 176.787 22.2204 176.144C23.3189 175.468 23.8682 174.405 23.8682 172.957C23.8682 171.54 23.3189 170.494 22.2204 169.818C21.1551 169.11 19.5739 168.756 17.4767 168.756H7.44008V163.058H16.0786C18.0426 163.058 19.5406 162.737 20.5726 162.093C21.6378 161.417 22.1704 160.403 22.1704 159.051C22.1704 157.731 21.6378 156.749 20.5726 156.105C19.5406 155.429 18.0426 155.091 16.0786 155.091H8.03928V177.109Z" fill="white"/>
<path d="M36.6336 172.426V166.39H50.7647V172.426H36.6336Z" fill="white"/>
<path d="M54.1173 183V177.93L67.5993 165.618C68.6645 164.684 69.4468 163.847 69.9462 163.107C70.4455 162.366 70.7784 161.69 70.9448 161.079C71.1446 160.467 71.2444 159.904 71.2444 159.389C71.2444 158.037 70.7618 157.007 69.7964 156.299C68.8643 155.558 67.4828 155.188 65.6519 155.188C64.1872 155.188 62.8223 155.462 61.5574 156.009C60.3257 156.556 59.2771 157.409 58.4116 158.568L52.5194 154.898C53.851 152.967 55.7152 151.438 58.112 150.311C60.5088 149.185 63.2717 148.621 66.4009 148.621C68.9974 148.621 71.2611 149.04 73.1918 149.877C75.1559 150.681 76.6705 151.824 77.7358 153.305C78.8343 154.786 79.3836 156.556 79.3836 158.616C79.3836 159.711 79.2338 160.805 78.9342 161.9C78.6679 162.962 78.102 164.089 77.2364 165.28C76.4042 166.471 75.1725 167.806 73.5414 169.287L62.3563 179.475L60.8084 176.626H80.5321V183H54.1173Z" fill="white"/>
<path d="M85.5176 183V157.023H93.3072V183H85.5176ZM89.4124 153.402C87.981 153.402 86.8159 152.999 85.9171 152.194C85.0183 151.39 84.5689 150.392 84.5689 149.201C84.5689 148.01 85.0183 147.012 85.9171 146.207C86.8159 145.402 87.981 145 89.4124 145C90.8438 145 92.0089 145.386 92.9077 146.159C93.8065 146.899 94.2559 147.865 94.2559 149.056C94.2559 150.311 93.8065 151.357 92.9077 152.194C92.0422 152.999 90.8771 153.402 89.4124 153.402Z" fill="white"/>
<path d="M116.865 156.637C118.995 156.637 120.893 157.055 122.557 157.892C124.255 158.697 125.587 159.952 126.552 161.658C127.517 163.332 128 165.489 128 168.128V183H120.21V169.287C120.21 167.195 119.728 165.65 118.762 164.652C117.83 163.654 116.499 163.155 114.768 163.155C113.536 163.155 112.421 163.413 111.422 163.928C110.457 164.41 109.691 165.167 109.125 166.197C108.593 167.227 108.326 168.547 108.326 170.156V183H100.537V157.023H107.977V164.217L106.579 162.044C107.544 160.306 108.925 158.97 110.723 158.037C112.521 157.103 114.568 156.637 116.865 156.637Z" fill="white"/>
<mask id="mask0_128_2855" style="mask-type:alpha" maskUnits="userSpaceOnUse" x="11" y="0" width="106" height="132">
<rect x="11" width="105.292" height="131.364" fill="#6B888C"/>
</mask>
<g mask="url(#mask0_128_2855)">
<mask id="path-3-inside-1_128_2855" fill="white">
<path d="M11.9999 89.9997C11.9999 89.9997 24.7219 77.2628 24.9999 77.4996C25.2779 77.7363 59 106 59 106L33.1458 129.804L12.1925 129.804L11.9999 89.9997Z"/>
</mask>
<path d="M24.9999 77.4996L676.578 -685.594L24.9999 77.4996ZM11.9999 89.9997L-693.258 -613.996L-990.162 -316.743L-988.137 101.834L11.9999 89.9997ZM12.1925 129.804L-987.945 141.639L-983.165 1129.66L5.19044 1129.66L12.1925 129.804ZM33.1458 129.804L26.1438 1129.66L418.377 1129.66L707.904 863.084L33.1458 129.804ZM59 106L733.758 839.28L1573.51 66.1126L704.703 -662.057L59 106ZM676.578 -685.594C284.495 -1019.43 -154.709 -906.293 -207.401 -893.341C-326.725 -864.011 -412.457 -819.121 -440.361 -804.265C-507.658 -768.436 -555.678 -732.642 -566.738 -724.455C-599.715 -700.043 -624.038 -678.772 -628.999 -674.458C-645.164 -660.402 -657.627 -648.63 -660.481 -645.94C-669.39 -637.545 -676.917 -630.166 -679.612 -627.521C-683.42 -623.784 -686.757 -620.475 -688.856 -618.388C-689.982 -617.268 -690.945 -616.308 -691.679 -615.575C-692.049 -615.205 -692.37 -614.885 -692.634 -614.621C-692.766 -614.489 -692.885 -614.37 -692.989 -614.266C-693.041 -614.214 -693.089 -614.165 -693.134 -614.12C-693.157 -614.098 -693.178 -614.076 -693.199 -614.056C-693.209 -614.045 -693.219 -614.035 -693.229 -614.025C-693.234 -614.02 -693.241 -614.013 -693.244 -614.011C-693.251 -614.003 -693.258 -613.996 11.9999 89.9997C717.258 793.996 717.251 794.003 717.244 794.01C717.242 794.012 717.235 794.019 717.23 794.024C717.221 794.033 717.212 794.042 717.203 794.05C717.186 794.068 717.169 794.085 717.153 794.101C717.12 794.134 717.09 794.164 717.062 794.192C717.006 794.248 716.958 794.296 716.919 794.334C716.842 794.412 716.795 794.459 716.773 794.481C716.736 794.518 716.769 794.485 716.84 794.414C717.135 794.12 716.996 794.261 716.403 794.843C716.084 795.156 715.205 796.018 713.905 797.276C712.84 798.307 710.039 801.013 706.184 804.646C704.561 806.175 693.138 816.99 677.722 830.395C673.135 834.384 649.114 855.405 616.354 879.657C605.403 887.764 557.47 923.5 490.237 959.295C462.366 974.133 376.66 1019.01 257.356 1048.34C196.384 1063.32 83.9741 1085.18 -57.3347 1074.51C-204.618 1063.38 -424.688 1012.49 -626.579 840.593L676.578 -685.594ZM-988.137 101.834L-987.945 141.639L1012.33 117.969L1012.14 78.1651L-988.137 101.834ZM5.19044 1129.66L26.1438 1129.66L40.1478 -870.047L19.1945 -870.047L5.19044 1129.66ZM707.904 863.084L733.758 839.28L-615.758 -627.28L-641.612 -603.476L707.904 863.084ZM59 106C704.703 -662.057 704.703 -662.057 704.703 -662.057C704.702 -662.058 704.702 -662.058 704.702 -662.058C704.701 -662.059 704.699 -662.06 704.697 -662.062C704.693 -662.065 704.687 -662.07 704.679 -662.077C704.663 -662.091 704.639 -662.111 704.607 -662.137C704.543 -662.191 704.449 -662.27 704.326 -662.373C704.079 -662.58 703.718 -662.883 703.257 -663.269C702.336 -664.041 701.019 -665.145 699.438 -666.47C696.275 -669.121 692.057 -672.656 687.832 -676.198C675.581 -686.467 672.83 -688.785 676.578 -685.594L-626.579 840.593C-622.552 844.021 -608.303 855.953 -603.623 859.875C-599.383 863.429 -595.153 866.974 -591.985 869.63C-590.4 870.958 -589.08 872.064 -588.156 872.839C-587.694 873.226 -587.331 873.53 -587.083 873.738C-586.96 873.842 -586.865 873.921 -586.801 873.975C-586.768 874.002 -586.744 874.022 -586.728 874.036C-586.72 874.043 -586.713 874.048 -586.709 874.051C-586.707 874.053 -586.706 874.054 -586.705 874.055C-586.704 874.056 -586.704 874.056 -586.703 874.056C-586.703 874.056 -586.703 874.057 59 106Z" fill="#26142E" mask="url(#path-3-inside-1_128_2855)"/>
<path fill-rule="evenodd" clip-rule="evenodd" d="M11.6927 0.0869141H11.1927V0.586914V1.17336V130.192V130.692H11.6927H68.4948H70.573V130.659C97.9676 129.773 116.099 111.38 116.099 87.3813C116.099 62.7881 96.3623 42.8977 67.8021 42.8977V43.8977C67.8664 43.8977 67.9306 43.8978 67.9948 43.898V43.9238V43.9909V44.0583V44.1259V44.1938V44.2621V44.3305V44.3993V44.4684V44.5377V44.6073V44.6771V44.7473V44.8177V44.8883V44.9593V45.0305V45.1019V45.1736V45.2456V45.3178V45.3903V45.463V45.536V45.6092V45.6827V45.7564V45.8304V45.9046V45.9791V46.0538V46.1287V46.2039V46.2793V46.3549V46.4308V46.5068V46.5832V46.6597V46.7365V46.8135V46.8907V46.9681V47.0457V47.1236V47.2017V47.28V47.3585V47.4372V47.5161V47.5952V47.6746V47.7541V47.8338V47.9137V47.9939V48.0742V48.1547V48.2354V48.3163V48.3974V48.4787V48.5601V48.6418V48.7236V48.8056V48.8878V48.9702V49.0527V49.1354V49.2183V49.3014V49.3846V49.468V49.5516V49.6353V49.7192V49.8032V49.8874V49.9718V50.0563V50.141V50.2258V50.3108V50.3959V50.4812V50.5666V50.6522V50.7379V50.8237V50.9097V50.9958V51.0821V51.1685V51.255V51.3417V51.4284V51.5154V51.6024V51.6896V51.7768V51.8642V51.9518V52.0394V52.1272V52.215V52.303V52.3911V52.4793V52.5676V52.656V52.7446V52.8332V52.9219V53.0107V53.0996V53.1887V53.2778V53.367V53.4563V53.5456V53.6351V53.7247V53.8143V53.904V53.9938V54.0837V54.1737V54.2637V54.3538V54.444V54.5342V54.6245V54.7149V54.8054V54.8959V54.9865V55.0771V55.1678V55.2586V55.3494V55.4402V55.5312V55.6221V55.7131V55.8042V55.8953V55.9865V56.0777V56.1689V56.2602V56.3515V56.4428V56.5342V56.6256V56.7171V56.8085V56.9V56.9916V57.0831V57.1747V57.2663V57.3579V57.4495V57.5412V57.6328V57.7245V57.8162V57.9079V57.9996V58.0913V58.183V58.2747V58.3664V58.4581V58.5498V58.6415V58.7332V58.8249V58.9166V59.0083V59.0999V59.1916V59.2832V59.3748V59.4664V59.5579V59.6495V59.741V59.8325V59.924V60.0154V60.1068V60.1982V60.2895V60.3808V60.4721V60.5633V60.6545V60.7456V60.8367V60.9278V61.0188V61.1097V61.2006V61.2915V61.3823V61.473V61.5637V61.6543V61.7449V61.8354V61.9258V62.0162V62.1065V62.1967V62.2869V62.377V62.467V62.5569V62.6468V62.7366V62.8263V62.9159V63.0054V63.0948V63.1842V63.2735V63.3626V63.4517V63.5407V63.6296V63.7184V63.8071V63.8957V63.9842V64.0726V64.1609V64.249V64.3371V64.425V64.5129V64.6006V64.6882V64.7757V64.8631V64.9503V65.0375V65.1245V65.2113V65.2981V65.3847V65.4712V65.5576V65.6438V65.7299V65.8158V65.9016V65.9873V66.0728V66.1582V66.2434V66.3285V66.4135V66.4982V66.5829V66.6673V66.7517V66.8358V66.9198V67.0037V67.0874V67.1709V67.2542V67.3374V67.4204V67.5033V67.5859V67.6684V67.7507V67.8329V67.9148V67.9966V68.0782V68.1596V68.2409V68.3219V68.4027V68.4834V68.5639V68.6441V68.7242V68.8041V68.8838V68.9632V69.0425V69.1216V69.2004V69.2791V69.3575V69.4358V69.5138V69.5916V69.6692V69.7466V69.8237V69.9006V69.9773V70.0538V70.1301V70.2061V70.2819V70.3575V70.4328V70.5079V70.5828V70.6574V70.7318V70.8059V70.8798V70.9535V71.0269V71.1001V71.173V71.2457V71.3181V71.3902V71.4621V71.5338V71.6051V71.6763V71.7471V71.8177V71.8881V71.9581V72.0279V72.0974V72.1667V72.2356V72.3043V72.3727V72.4409V72.5087V72.5763V72.6436V72.7106V72.7773V72.8438V72.9099V72.9757V73.0413V73.1065V73.1715V73.2361V73.3005V73.3645V73.4283V73.4917V73.5548V73.6177V73.6802V73.7424V73.8042V73.8658V73.9271V73.988V74.0486V74.1089V74.1688V74.2285V74.2878V74.3467V74.4054V74.4637V74.5217V74.5793V74.6366V74.6936V74.7502V74.8065V74.8624V74.918V74.9732V75.0281V75.0827V75.1369V75.1907V75.2442V75.2973V75.35V75.4024V75.4545V75.5061V75.5574V75.6084V75.6589V75.7091V75.7589V75.8084V75.8575V75.9062V75.9545V76.0024V76.0499V76.0971V76.1439V76.1903V76.2363V76.2819V76.3271V76.3719V76.4163V76.4604V76.504V76.5472V76.59V76.6324V76.6745V76.7161V76.7573V76.798V76.8384V76.8784V76.9179V76.957V76.9957V77.034V77.0718V77.1093V77.1463V77.1829V77.219V77.2547V77.29V77.3249V77.3593V77.3932V77.4268V77.4599V77.4925V77.5247V77.5565V77.5878V77.6187V77.6491V77.679V77.7085V77.7376V77.7662V77.7943V77.8219V77.8491V77.8759V77.9022V77.928V77.9533V77.9782V78.0025V78.0265V78.0499V78.0729V78.0953V78.1173V78.1389V78.1599V78.1804V78.2005V78.2201V78.2391V78.2577V78.2758V78.2934V78.3105V78.3271V78.3432V78.3588V78.3739V78.3884V78.4025V78.4161V78.4291V78.4417V78.4537V78.4652V78.4762V78.4866V78.4966V78.506V78.5149V78.5233V78.5311V78.5384V78.5452V78.5515V78.5572V78.5624V78.567V78.5711V78.5747V78.5777V78.5802V78.5821V78.5835V78.5843C67.9948 78.5844 67.9948 78.5845 68.0711 78.5845C68.1376 78.5845 68.262 78.5846 68.4948 78.5846H67.9948V79.0846H68.4948H89.2971L58.7969 104.906L27.604 78.4981H49.099H49.599V77.9981V0.586914V0.0869141H49.099H11.6927ZM68.9948 43.9095V43.9238V43.9909V44.0583V44.1259V44.1938V44.2621V44.3305V44.3993V44.4684V44.5377V44.6073V44.6771V44.7473V44.8177V44.8883V44.9593V45.0305V45.1019V45.1736V45.2456V45.3178V45.3903V45.463V45.536V45.6092V45.6827V45.7564V45.8304V45.9046V45.9791V46.0538V46.1287V46.2039V46.2793V46.3549V46.4308V46.5068V46.5832V46.6597V46.7365V46.8135V46.8907V46.9681V47.0457V47.1236V47.2017V47.28V47.3585V47.4372V47.5161V47.5952V47.6746V47.7541V47.8338V47.9137V47.9939V48.0742V48.1547V48.2354V48.3163V48.3974V48.4787V48.5601V48.6418V48.7236V48.8056V48.8878V48.9702V49.0527V49.1354V49.2183V49.3014V49.3846V49.468V49.5516V49.6353V49.7192V49.8032V49.8874V49.9718V50.0563V50.141V50.2258V50.3108V50.3959V50.4812V50.5666V50.6522V50.7379V50.8237V50.9097V50.9958V51.0821V51.1685V51.255V51.3417V51.4284V51.5154V51.6024V51.6896V51.7768V51.8642V51.9518V52.0394V52.1272V52.215V52.303V52.3911V52.4793V52.5676V52.656V52.7446V52.8332V52.9219V53.0107V53.0996V53.1887V53.2778V53.367V53.4563V53.5456V53.6351V53.7247V53.8143V53.904V53.9938V54.0837V54.1737V54.2637V54.3538V54.444V54.5342V54.6245V54.7149V54.8054V54.8959V54.9865V55.0771V55.1678V55.2586V55.3494V55.4402V55.5312V55.6221V55.7131V55.8042V55.8953V55.9865V56.0777V56.1689V56.2602V56.3515V56.4428V56.5342V56.6256V56.7171V56.8085V56.9V56.9916V57.0831V57.1747V57.2663V57.3579V57.4495V57.5412V57.6328V57.7245V57.8162V57.9079V57.9996V58.0913V58.183V58.2747V58.3664V58.4581V58.5498V58.6415V58.7332V58.8249V58.9166V59.0083V59.0999V59.1916V59.2832V59.3748V59.4664V59.5579V59.6495V59.741V59.8325V59.924V60.0154V60.1068V60.1982V60.2895V60.3808V60.4721V60.5633V60.6545V60.7456V60.8367V60.9278V61.0188V61.1097V61.2006V61.2915V61.3823V61.473V61.5637V61.6543V61.7449V61.8354V61.9258V62.0162V62.1065V62.1967V62.2869V62.377V62.467V62.5569V62.6468V62.7366V62.8263V62.9159V63.0054V63.0948V63.1842V63.2735V63.3626V63.4517V63.5407V63.6296V63.7184V63.8071V63.8957V63.9842V64.0726V64.1609V64.249V64.3371V64.425V64.5129V64.6006V64.6882V64.7757V64.8631V64.9503V65.0375V65.1245V65.2113V65.2981V65.3847V65.4712V65.5576V65.6438V65.7299V65.8158V65.9016V65.9873V66.0728V66.1582V66.2434V66.3285V66.4135V66.4982V66.5829V66.6673V66.7517V66.8358V66.9198V67.0037V67.0874V67.1709V67.2542V67.3374V67.4204V67.5033V67.5859V67.6684V67.7507V67.8329V67.9148V67.9966V68.0782V68.1596V68.2409V68.3219V68.4027V68.4834V68.5639V68.6441V68.7242V68.8041V68.8838V68.9632V69.0425V69.1216V69.2004V69.2791V69.3575V69.4358V69.5138V69.5916V69.6692V69.7466V69.8237V69.9006V69.9773V70.0538V70.1301V70.2061V70.2819V70.3575V70.4328V70.5079V70.5828V70.6574V70.7318V70.8059V70.8798V70.9535V71.0269V71.1001V71.173V71.2457V71.3181V71.3902V71.4621V71.5338V71.6051V71.6763V71.7471V71.8177V71.8881V71.9581V72.0279V72.0974V72.1667V72.2356V72.3043V72.3727V72.4409V72.5087V72.5763V72.6436V72.7106V72.7773V72.8438V72.9099V72.9757V73.0413V73.1065V73.1715V73.2361V73.3005V73.3645V73.4283V73.4917V73.5548V73.6177V73.6802V73.7424V73.8042V73.8658V73.9271V73.988V74.0486V74.1089V74.1688V74.2285V74.2878V74.3467V74.4054V74.4637V74.5217V74.5793V74.6366V74.6936V74.7502V74.8065V74.8624V74.918V74.9732V75.0281V75.0827V75.1369V75.1907V75.2442V75.2973V75.35V75.4024V75.4545V75.5061V75.5574V75.6084V75.6589V75.7091V75.7589V75.8084V75.8575V75.9062V75.9545V76.0024V76.0499V76.0971V76.1439V76.1903V76.2363V76.2819V76.3271V76.3719V76.4163V76.4604V76.504V76.5472V76.59V76.6324V76.6745V76.7161V76.7573V76.798V76.8384V76.8784V76.9179V76.957V76.9957V77.034V77.0718V77.1093V77.1463V77.1829V77.219V77.2547V77.29V77.3249V77.3593V77.3932V77.4268V77.4599V77.4925V77.5247V77.5565V77.5878V77.6187V77.6491V77.679V77.7085V77.7376V77.7662V77.7943V77.8219V77.8491V77.8759V77.9022V77.928V77.9533V77.9782V78.0025V78.0265V78.0499V78.0729V78.0846H90.6615H92.0259L90.9846 78.9662L59.12 105.943L58.7969 106.216L58.4738 105.943L25.9166 78.3797L24.8752 77.4981H26.2396H48.599V1.08691H12.1927V1.17336V129.692H68.4948C96.5635 129.692 115.099 111.363 115.099 87.3813C115.099 63.733 96.4063 44.4535 68.9948 43.9095Z" fill="white"/>
</g>
</svg>